# xmcd
#
# Track frame offsets:
#	150
#	13994
#	26142
#	41324
#	59075
#	68844
#	85133
#	100065
#	118031
#	129943
#	150264
#	165595
#	179851
#	191058
#	205186
#	220458
#
# Disc length: 3158 seconds
#
# Revision: 1
# Processed by: cddbd v1.5.2PL0 Copyright (c) Steve Scherf et al.
# Submitted via: audiograbber 1.83.01
#
DISCID=e30c5410
DTITLE=Erin Hay - Somebody's Angel
DYEAR=2003
DGENRE=Country
TTITLE0=Big City
TTITLE1=Fool # 1
TTITLE2=Country Roads
TTITLE3=Somebody's Angel
TTITLE4=Walkin' the Floor Over You
TTITLE5=Faded Love
TTITLE6=Givin' Old Memories Away
TTITLE7=Cry Like Memphis
TTITLE8=Among My Souveniers
TTITLE9=Ode To Billie Joe
TTITLE10=The Tree
TTITLE11=Poor Folks (with Ernie Ashworth)
TTITLE12=Oklahoma Hills
TTITLE13=Seed Catalog
TTITLE14=Don't Worry 'Bout Me
TTITLE15=Farther Along
EXTD=
EXTT0=
EXTT1=
EXTT2=
EXTT3=
EXTT4=
EXTT5=
EXTT6=
EXTT7=
EXTT8=
EXTT9=
EXTT10=
EXTT11=
EXTT12=
EXTT13=
EXTT14=
EXTT15=
PLAYORDER=
